<?xml version="1.0" encoding="UTF-8" standalone="no"?>
<!-- Created with Inkscape (http://www.inkscape.org/) -->

<svg
   xmlns:dc="http://purl.org/dc/elements/1.1/"
   xmlns:cc="http://creativecommons.org/ns#"
   xmlns:rdf="http://www.w3.org/1999/02/22-rdf-syntax-ns#"
   xmlns:svg="http://www.w3.org/2000/svg"
   xmlns="http://www.w3.org/2000/svg"
   xmlns:xlink="http://www.w3.org/1999/xlink"
   xmlns:sodipodi="http://sodipodi.sourceforge.net/DTD/sodipodi-0.dtd"
   xmlns:inkscape="http://www.inkscape.org/namespaces/inkscape"
   version="1.1"
   id="svg2"
   xml:space="preserve"
   width="768.81354"
   height="172.88136"
   viewBox="0 0 768.81352 172.88136"
   sodipodi:docname="instafacetweyou.svg"
   inkscape:version="0.92.4 (5da689c313, 2019-01-14)"><metadata
     id="metadata8"><rdf:RDF><cc:Work
         rdf:about=""><dc:format>image/svg+xml</dc:format><dc:type
           rdf:resource="http://purl.org/dc/dcmitype/StillImage" /><dc:title></dc:title></cc:Work></rdf:RDF></metadata><defs
     id="defs6"><linearGradient
       id="linearGradient1184"
       inkscape:collect="always"><stop
         id="stop1180"
         offset="0"
         style="stop-color:#94002d;stop-opacity:1" /><stop
         id="stop1182"
         offset="1"
         style="stop-color:#eb3018;stop-opacity:1" /></linearGradient><linearGradient
       inkscape:collect="always"
       id="linearGradient1160"><stop
         style="stop-color:#3b5796;stop-opacity:1"
         offset="0"
         id="stop1156" /><stop
         style="stop-color:#0b93ff;stop-opacity:1"
         offset="1"
         id="stop1158" /></linearGradient><linearGradient
       id="linearGradient1139"
       inkscape:collect="always"><stop
         id="stop1135"
         offset="0"
         style="stop-color:#0b93ff;stop-opacity:1" /><stop
         id="stop1137"
         offset="1"
         style="stop-color:#93fff6;stop-opacity:1" /></linearGradient><linearGradient
       inkscape:collect="always"
       id="linearGradient1118"><stop
         style="stop-color:#a60bff;stop-opacity:1"
         offset="0"
         id="stop1114" /><stop
         style="stop-color:#ff0010;stop-opacity:0.98823529"
         offset="1"
         id="stop1116" /></linearGradient><clipPath
       clipPathUnits="userSpaceOnUse"
       id="clipPath18"><path
         d="M 0,720 H 1280 V 0 H 0 Z"
         id="path16"
         inkscape:connector-curvature="0" /></clipPath><linearGradient
       inkscape:collect="always"
       xlink:href="#linearGradient1118"
       id="linearGradient1120"
       x1="575.93225"
       y1="-423.30508"
       x2="704.06787"
       y2="-294.40677"
       gradientUnits="userSpaceOnUse" /><linearGradient
       inkscape:collect="always"
       xlink:href="#linearGradient1139"
       id="linearGradient1124"
       gradientUnits="userSpaceOnUse"
       x1="575.93225"
       y1="-423.30508"
       x2="704.06787"
       y2="-294.40677"
       gradientTransform="translate(1.4185548e-5,-1.5357422e-5)" /><linearGradient
       inkscape:collect="always"
       xlink:href="#linearGradient1184"
       id="linearGradient1143"
       gradientUnits="userSpaceOnUse"
       gradientTransform="translate(-6.6203102e-6,-2.7742188e-5)"
       x1="575.93225"
       y1="-423.30508"
       x2="704.06787"
       y2="-294.40677" /><linearGradient
       inkscape:collect="always"
       xlink:href="#linearGradient1160"
       id="linearGradient1175"
       gradientUnits="userSpaceOnUse"
       gradientTransform="translate(7.8972668e-6,-1.8742188e-5)"
       x1="575.93225"
       y1="-423.30508"
       x2="704.06787"
       y2="-294.40677" /></defs><sodipodi:namedview
     pagecolor="#ffffff"
     bordercolor="#666666"
     borderopacity="1"
     objecttolerance="10"
     gridtolerance="10"
     guidetolerance="10"
     inkscape:pageopacity="0"
     inkscape:pageshadow="2"
     inkscape:window-width="1920"
     inkscape:window-height="1013"
     id="namedview4"
     showgrid="false"
     inkscape:zoom="0.49166667"
     inkscape:cx="326.88452"
     inkscape:cy="55.093857"
     inkscape:window-x="-9"
     inkscape:window-y="-9"
     inkscape:window-maximized="1"
     inkscape:current-layer="g10" /><g
     id="g10"
     inkscape:groupmode="layer"
     inkscape:label="instagram-3288419"
     transform="matrix(1.3333333,0,0,-1.3333333,-435.36729,566.44068)"><g
       id="g1133"
       transform="translate(-99.660971,9.0000002e-6)"><circle
         inkscape:export-ydpi="166.58824"
         inkscape:export-xdpi="166.58824"
         inkscape:export-filename="D:\unity\Scape Room The Cave\Assets\Sprites\Redes\instagram.png"
         transform="scale(1,-1)"
         r="64.830513"
         cy="-360"
         cx="640.00006"
         id="path1090"
         style="fill:url(#linearGradient1120);fill-opacity:1;fill-rule:evenodd;stroke:none;stroke-width:19.73682785;stroke-linecap:round;stroke-linejoin:round;stroke-miterlimit:4;stroke-dasharray:none;stroke-opacity:1;paint-order:normal" /><g
         inkscape:export-ydpi="166.58824"
         inkscape:export-xdpi="166.58824"
         inkscape:export-filename="D:\unity\Scape Room The Cave\Assets\Sprites\Redes\instagram.png"
         style="fill:#ffffff;fill-opacity:1"
         transform="translate(668.98214,359.99366)"
         id="g20"><path
           inkscape:connector-curvature="0"
           id="path22"
           style="fill:#ffffff;fill-opacity:1;fill-rule:nonzero;stroke:none"
           d="m 0,0 c 0.011,4.374 0.068,8.749 -0.124,13.121 -0.096,2.183 -0.209,4.368 -0.838,6.487 -0.653,2.199 -1.744,4.116 -3.443,5.688 -2.377,2.199 -5.286,3.063 -8.401,3.362 -3.335,0.321 -6.688,0.328 -10.035,0.345 -5.713,0.029 -11.428,0.073 -17.141,-0.087 -2.283,-0.065 -4.569,-0.104 -6.829,-0.484 -3.243,-0.545 -6.028,-1.927 -8.089,-4.564 -1.802,-2.306 -2.492,-5.014 -2.775,-7.86 -0.274,-2.747 -0.283,-5.508 -0.314,-8.261 -0.08,-6.915 -0.103,-13.833 0.103,-20.747 0.06,-2.002 0.193,-4.006 0.674,-5.975 0.678,-2.777 2.054,-5.107 4.279,-6.899 2.091,-1.685 4.577,-2.44 7.187,-2.767 2.699,-0.337 5.425,-0.348 8.139,-0.362 7.073,-0.037 14.148,-0.119 21.219,0.1 1.812,0.056 3.621,0.153 5.406,0.49 2.817,0.532 5.324,1.656 7.299,3.82 1.705,1.867 2.613,4.099 3.089,6.538 0.569,2.918 0.489,5.885 0.574,8.832 C 0.069,-6.151 0,-3.074 0,0 m -27.728,-35.529 c -5.212,0 -8.763,-0.093 -12.306,0.028 -3.178,0.108 -6.382,0.104 -9.5,0.905 -4.015,1.03 -7.479,2.952 -10.163,6.185 -2.632,3.169 -3.946,6.858 -4.396,10.895 -0.338,3.036 -0.459,6.085 -0.461,9.138 -0.004,6.011 -0.038,12.022 0.016,18.032 0.027,2.99 0.105,5.988 0.566,8.953 0.85,5.475 3.362,9.973 7.968,13.156 2.775,1.917 5.913,2.959 9.257,3.312 7.229,0.763 14.486,0.407 21.732,0.479 3.093,0.031 6.187,0.015 9.277,-0.129 3.29,-0.153 6.559,-0.407 9.69,-1.589 3.433,-1.296 6.257,-3.372 8.435,-6.319 2.341,-3.168 3.496,-6.789 3.788,-10.663 0.697,-9.228 0.34,-18.473 0.32,-27.711 -0.006,-2.826 -0.099,-5.673 -0.655,-8.47 -0.815,-4.103 -2.52,-7.724 -5.607,-10.642 -2.504,-2.367 -5.459,-3.832 -8.779,-4.626 -2.018,-0.483 -4.068,-0.622 -6.137,-0.749 -4.903,-0.301 -9.807,-0.127 -13.045,-0.185" /></g><g
         inkscape:export-ydpi="166.58824"
         inkscape:export-xdpi="166.58824"
         inkscape:export-filename="D:\unity\Scape Room The Cave\Assets\Sprites\Redes\instagram.png"
         style="fill:#ffffff;fill-opacity:1"
         transform="translate(639.98894,348.24416)"
         id="g24"><path
           inkscape:connector-curvature="0"
           id="path26"
           style="fill:#ffffff;fill-opacity:1;fill-rule:nonzero;stroke:none"
           d="M 0,0 C 6.467,0.007 11.756,5.277 11.724,11.746 11.69,18.282 6.572,23.427 -0.009,23.479 -6.475,23.531 -11.81,18.163 -11.741,11.675 -11.672,5.164 -6.504,0.06 0,0 m -0.097,-6.539 c -9.917,-0.064 -18.294,8.147 -18.223,18.43 0.069,10.06 8.237,18.167 18.402,18.156 C 10.146,30.036 18.258,21.844 18.298,11.77 18.337,1.667 10.062,-6.687 -0.097,-6.539" /></g><g
         inkscape:export-ydpi="166.58824"
         inkscape:export-xdpi="166.58824"
         inkscape:export-filename="D:\unity\Scape Room The Cave\Assets\Sprites\Redes\instagram.png"
         style="fill:#ffffff;fill-opacity:1"
         transform="translate(663.23844,378.91896)"
         id="g28"><path
           inkscape:connector-curvature="0"
           id="path30"
           style="fill:#ffffff;fill-opacity:1;fill-rule:nonzero;stroke:none"
           d="m 0,0 c 0,-2.396 -1.921,-4.332 -4.297,-4.33 -2.376,0.003 -4.377,1.974 -4.366,4.302 0.011,2.437 1.936,4.375 4.339,4.366 C -1.848,4.331 0.001,2.476 0,0" /></g></g><g
       id="g1148"
       transform="translate(49.322091,9.0000002e-6)"><circle
         style="fill:url(#linearGradient1124);fill-opacity:1;fill-rule:evenodd;stroke:none;stroke-width:19.73682785;stroke-linecap:round;stroke-linejoin:round;stroke-miterlimit:4;stroke-dasharray:none;stroke-opacity:1;paint-order:normal"
         id="circle1122"
         cx="640.00006"
         cy="-360"
         r="64.830513"
         transform="scale(1,-1)"
         inkscape:export-filename="D:\unity\Scape Room The Cave\Assets\Sprites\Redes\twitter.png"
         inkscape:export-xdpi="166.58824"
         inkscape:export-ydpi="166.58824" /><g
         inkscape:export-ydpi="166.58824"
         inkscape:export-xdpi="166.58824"
         inkscape:export-filename="D:\unity\Scape Room The Cave\Assets\Sprites\Redes\twitter.png"
         style="fill:#ffffff;fill-opacity:1"
         transform="translate(666.79879,476.22857)"
         id="g44"><path
           inkscape:connector-curvature="0"
           id="path46"
           style="fill:#ffffff;fill-opacity:1;fill-rule:nonzero;stroke:none"
           d="m 9.9152545,-93.813562 c -2.699,-1.181 -5.601,-1.974 -8.65,-2.332 3.113,1.834 5.497,4.739 6.626,8.206 -2.91,-1.703 -6.139,-2.937 -9.571,-3.603 -2.743,2.882 -6.659,4.684 -10.9910005,4.684 -8.318,0 -15.062,-6.642 -15.062,-14.829998 0,-1.163 0.134,-2.289 0.385,-3.378 -12.517,0.618 -23.618,6.523998 -31.047,15.493998 -1.294,-2.189 -2.042,-4.738 -2.042,-7.455 0,-5.141998 2.666,-9.681998 6.703,-12.340998 -2.466,0.076 -4.792,0.744 -6.824,1.853 v -0.184 c 0,-1.899 0.371,-3.707 1.031,-5.375 1.84,-4.65 5.982,-8.163 11.055,-9.171 -1.267,-0.334 -2.594,-0.52 -3.973,-0.52 -0.967,0 -1.91,0.094 -2.833,0.27 1.921,-5.89 7.483,-10.18 14.072,-10.298 -5.157,-3.98 -11.648,-6.35 -18.71,-6.35 -1.217,0 -2.414,0.07 -3.597,0.207 6.673,-4.207 14.594,-6.662 23.094,-6.662 23.55,0 38.0210005,16.315 41.8390005,33.24 0.675,2.991 1.024,6.003 1.024,8.951 0,0.639 -0.012,1.283 -0.041,1.918 2.941,2.089998 5.496,4.700998 7.512,7.675998" /></g></g><g
       id="g1189"
       transform="translate(198.30509,9.0000002e-6)"><circle
         inkscape:export-ydpi="166.58824"
         inkscape:export-xdpi="166.58824"
         inkscape:export-filename="D:\unity\Scape Room The Cave\Assets\Sprites\Redes\youtube.png"
         transform="scale(1,-1)"
         r="64.830513"
         cy="-360"
         cx="640.00006"
         id="circle1141"
         style="fill:url(#linearGradient1143);fill-opacity:1;fill-rule:evenodd;stroke:none;stroke-width:19.73682785;stroke-linecap:round;stroke-linejoin:round;stroke-miterlimit:4;stroke-dasharray:none;stroke-opacity:1;paint-order:normal" /><g
         inkscape:export-ydpi="166.58824"
         inkscape:export-xdpi="166.58824"
         inkscape:export-filename="D:\unity\Scape Room The Cave\Assets\Sprites\Redes\youtube.png"
         style="fill:#ffffff;fill-opacity:1"
         transform="translate(652.25205,360.78301)"
         id="g56"><path
           inkscape:connector-curvature="0"
           id="path58"
           style="fill:#ffffff;fill-opacity:1;fill-rule:nonzero;stroke:none"
           d="m 0,0 -19.83,-10.714 -0.005,16.495 v 5.014 l 8.943,-4.867 z m 23.722,14.526 c 0,0 -0.715,5.28 -2.914,7.601 -2.793,3.046 -5.923,3.065 -7.353,3.242 -10.281,0.77 -25.689,0.77 -25.689,0.77 h -0.034 c 0,0 -15.417,0 -25.688,-0.774 -1.435,-0.173 -4.56,-0.192 -7.357,-3.24 -2.197,-2.322 -2.915,-7.602 -2.915,-7.602 0,0 -0.736,-6.192 -0.736,-12.39 V 1.387 -3.671 c 0,-6.2 0.736,-12.395 0.736,-12.395 0,0 0.718,-5.277 2.915,-7.598 2.797,-3.05 6.469,-2.953 8.098,-3.27 5.875,-0.586 24.963,-0.771 24.963,-0.771 0,0 15.426,0.029 25.707,0.799 1.43,0.179 4.56,0.192 7.353,3.244 2.199,2.322 2.914,7.598 2.914,7.598 0,0 0.738,6.193 0.738,12.393 v 4.735 1.069 c 0,6.198 -0.738,12.393 -0.738,12.393" /></g></g><g
       inkscape:export-ydpi="166.58824"
       inkscape:export-xdpi="166.58824"
       inkscape:export-filename="D:\unity\Scape Room The Cave\Assets\Sprites\Redes\facebook.png"
       id="g1173"
       transform="translate(-248.64407,9.0000002e-6)"><circle
         style="fill:url(#linearGradient1175);fill-opacity:1;fill-rule:evenodd;stroke:none;stroke-width:19.73682785;stroke-linecap:round;stroke-linejoin:round;stroke-miterlimit:4;stroke-dasharray:none;stroke-opacity:1;paint-order:normal"
         id="circle1167"
         cx="640.00006"
         cy="-360"
         r="64.830513"
         transform="scale(1,-1)"
         inkscape:export-filename="D:\unity\Scape Room The Cave\Assets\Sprites\Redes\twitter.png"
         inkscape:export-xdpi="166.58824"
         inkscape:export-ydpi="166.58824" /><g
         id="g1171"
         transform="translate(645.46255,374.68351)"><path
           d="m 0,0 v 5.872 c 0,2.861 1.908,3.527 3.247,3.527 h 8.237 V 21.98 L 0.14,22.029 c -12.591,0 -15.453,-9.385 -15.453,-15.391 V 0 h -7.282 v -8.871 -5.812 h 7.344 v -36.713 h 14.684 v 36.713 H 10.332 L 10.859,-8.916 11.67,0 Z"
           style="fill:#ffffff;fill-opacity:1;fill-rule:nonzero;stroke:none"
           id="path1169"
           inkscape:connector-curvature="0" /></g></g></g></svg>